<?xml version="1.0" encoding="utf-8"?>
<!-- Generator: Adobe Illustrator 15.0.0, SVG Export Plug-In . SVG Version: 6.00 Build 0)  -->
<!DOCTYPE svg PUBLIC "-//W3C//DTD SVG 1.1//EN" "http://www.w3.org/Graphics/SVG/1.1/DTD/svg11.dtd">
<svg version="1.1" id="Calque_1" xmlns="http://www.w3.org/2000/svg" xmlns:xlink="http://www.w3.org/1999/xlink" x="0px" y="0px"
	 width="155.28px" height="170px" viewBox="0 0 155.28 170" enable-background="new 0 0 155.28 170" xml:space="preserve">
<g>
	<g>
		<polygon fill="#E2C2AC" points="35.937,70.19 40.918,95.676 63.569,130.73 83.961,137.045 115,104.396 115,71.096 		"/>
		<path fill="#212121" d="M84.338,137.818l-21.151-6.511L40.317,95.804l-5.039-26.303L116,70.425v34.245L84.338,137.818z
			 M64.033,130.154l20.08,6.119L115,104.125V71.768l-77.898-0.888l4.629,24.539L64.033,130.154z"/>
	</g>
	<path fill="#212121" d="M91.911,70.129C86.264,70.129,81.413,74,79.26,81h-4.597c-2.154-7-7.005-10.871-12.653-10.871
		c-7.646,0-13.846,6.909-13.846,16.058c0,9.148,6.199,16.311,13.846,16.311c5.985,0,11.069-4.678,13.002-11.039
		c0.902-0.997,2.217-1.714,3.834-0.276c1.885,6.472,7.016,11.093,13.065,11.093c7.648,0,13.847-6.925,13.847-16.073
		C105.758,77.054,99.56,70.129,91.911,70.129z"/>
	<g>
		<path fill="#C79A71" d="M39.103,75.854L8.295,102.811c0,0,23.332,1.812,35.111,8.834c-4.304,3.398-12.912,11.326-12.912,11.326
			s34.887,11.551,45.08,21.52c4.758-7.022,4.758-11.099,4.758-11.099s-33.301-11.78-39.19-55.953
			C39.556,76.986,39.103,75.854,39.103,75.854z"/>
		<path fill="#212121" d="M75.894,147.656l-1.745-1.707c-9.744-9.527-43.95-20.928-44.295-21.042l-3.288-1.088l2.548-2.347
			c0.296-0.272,6.189-5.695,10.635-9.457c-11.808-5.575-31.398-7.154-31.61-7.171l-4.833-0.375l36.928-32.313l0.761,2.932
			c0.013-0.015,0.188,0.243,0.709,0.392l1.284,0.367l0.176,1.324c5.66,42.445,37.343,54.187,37.664,54.3l1.174,0.48v1.442
			c0,0.48,0.042,4.914-4.924,12.243L75.894,147.656z M34.411,122.161c8.451,2.965,30.8,11.254,40.723,19.23
			c1.862-3.113,2.628-5.416,2.941-6.738c-6.759-3.056-33.189-17.345-38.795-55.802c-0.104-0.059-0.202-0.121-0.297-0.184
			l-25.829,22.6c7.558,0.924,22.402,3.325,31.296,8.626l2.544,1.516l-2.324,1.836C41.911,115.423,37.279,119.562,34.411,122.161z"/>
	</g>
	<g>
		<path fill="#C79A71" d="M111.593,76.307c0,0,2.491,18.801-5.437,24.012c-7.93,5.211-34.207,31.035-31.035,57.992
			c17.895-31.034,52.553-36.698,52.553-36.698s-9.514-7.022-15.855-7.475c13.592-7.249,34.321-11.78,34.321-11.78
			S119.068,79.024,111.593,76.307z"/>
		<path fill="#212121" d="M73.814,164.656l-0.719-6.108c-3.206-27.25,22.664-53.837,31.939-59.933
			c5.627-3.698,5.183-17.163,4.536-22.04l-0.442-3.333l3.159,1.149c7.644,2.779,33.668,25.341,35.027,26.301l4.039,2.85
			l-4.873,0.826c-0.234,0.04-14.87,3.583-28.72,9.258c5.514,2.237,10.823,6.126,11.123,6.348l3.884,2.865l-4.763,0.786
			c-0.338,0.056-33.939,5.912-51.119,35.705L73.814,164.656z M113.942,79.686c0.351,6.136,0.061,17.915-6.667,22.337
			c-8,5.256-29.107,26.607-30.326,49.642c14.574-20.676,36.111-28.447,45.626-30.987c-3.34-2.025-7.757-4.282-10.903-4.506
			l-7.053-0.503l6.239-3.329c10.348-5.519,21.731-9.425,30.137-11.093C131.594,94.705,121.59,83.838,113.942,79.686z"/>
	</g>
	<g>
		<path fill="#FFFFFF" d="M50.656,86h6.795c0,0-1.273,7.985,2.889,13.252C53.374,97.298,50.146,93,50.656,86z"/>
	</g>
	<g>
		<path fill="#847370" d="M46.238,55.806c-31.261,0-72.376,27.184,30.241,27.184s59.804-26.844,28.203-26.844"/>
		<path fill="#212121" d="M76.479,85.028c-22.902,0-40.278-1.347-51.644-4.001C14.351,78.577,9.034,74.553,9.034,69.823
			C9.034,60.969,29.491,53,46.238,53H48v5h-1.762c-15.994,0-33.126,7.178-33.126,12.284c0,0.913,0.912,4.067,12.651,6.811
			c11.062,2.584,28.125,3.875,50.716,3.875c22.308,0,39.151-1.272,50.062-3.761c9.201-2.099,12.479-4.367,12.479-6.167
			c0-4.571-16.969-12.042-34.338-12.042H102v-4h2.683c15.469,0,38.415,6.491,38.415,16.076c0,4.692-5.118,7.918-15.648,10.321
			C116.239,83.955,99.092,85.028,76.479,85.028z"/>
	</g>
	<g>
		<path fill="#847370" d="M74.781,12.992c-5.438,0-6.683-10.534-14.611-10.534S46.012,55.919,46.012,56.146
			c27.977,10.08,58.756,0.042,58.756,0.042s-6.881-53.39-14.696-53.39C82.257,2.798,80.218,12.992,74.781,12.992z"/>
		<path fill="#212121" d="M73.753,62.675c-10.373,0-19.925-1.552-28.419-4.612L44,57.578v-1.432c0-0.467,1.635-14.2,4.129-27.31
			c4.764-25.041,8.76-28.417,12.048-28.417c5.363,0,8.169,3.788,10.427,6.832c1.707,2.304,2.839,3.702,4.179,3.702
			c1.521,0,2.953-1.705,4.61-3.679c2.436-2.902,5.468-6.515,10.679-6.515c3.241,0,7.232,3.366,12.278,28.33
			c2.68,13.265,4.423,26.704,4.44,26.838l0.216,1.675l-1.606,0.524C104.83,58.312,91.25,62.675,73.753,62.675z M48.226,54.754
			c7.668,2.551,16.246,3.843,25.527,3.843c13.46,0,24.71-2.744,28.767-3.873C99.029,28.553,93.371,5.893,90.008,4.83
			c-3.246,0.007-5.31,2.465-7.494,5.066c-2.118,2.524-4.31,5.135-7.732,5.135c-3.489,0-5.597-2.843-7.457-5.351
			c-1.977-2.665-3.843-5.183-7.154-5.183c-0.094,0.038-3.575,1.346-8.146,25.615C50.101,40.32,48.711,50.806,48.226,54.754z"/>
	</g>
	<path fill="#212121" d="M103.663,41.194c0,0-25.371,11.327-55.726,0c2.038,4.757-1.359,14.951-1.359,14.951s23.106,12.686,58.444,0
		C104.797,52.294,103.663,41.194,103.663,41.194z"/>
</g>
</svg>
