<?xml version="1.0" encoding="utf-8"?>
<!-- Generator: Adobe Illustrator 15.0.0, SVG Export Plug-In . SVG Version: 6.00 Build 0)  -->
<!DOCTYPE svg PUBLIC "-//W3C//DTD SVG 1.1//EN" "http://www.w3.org/Graphics/SVG/1.1/DTD/svg11.dtd">
<svg version="1.1" id="Calque_1" xmlns="http://www.w3.org/2000/svg" xmlns:xlink="http://www.w3.org/1999/xlink" x="0px" y="0px"
	 width="38.167px" height="63.375px" viewBox="6.5 -7.75 38.167 63.375" enable-background="new 6.5 -7.75 38.167 63.375"
	 xml:space="preserve">
<g>
	<g>
		<path fill="#ABCFD3" d="M43.5,51.5c0,1.65-1.35,3-3,3h-30c-1.65,0-3-1.35-3-3v-55c0-1.65,1.35-3,3-3h30c1.65,0,3,1.35,3,3V51.5z"
			/>
	</g>
	<path fill="#222222" d="M40.5,55.5h-30c-2.206,0-4-1.795-4-4v-55c0-2.206,1.794-4,4-4h30c2.206,0,4,1.794,4,4v55
		C44.5,53.705,42.706,55.5,40.5,55.5z M10.5-5.5c-1.103,0-2,0.897-2,2v55c0,1.104,0.897,2,2,2h30c1.103,0,2-0.896,2-2v-55
		c0-1.103-0.897-2-2-2H10.5z"/>
</g>
<g>
	<circle fill="#FFFFFF" cx="18.25" cy="3" r="4.5"/>
	<path fill="#222222" d="M18.25,8.5c-3.032,0-5.5-2.467-5.5-5.5s2.468-5.5,5.5-5.5s5.5,2.467,5.5,5.5S21.282,8.5,18.25,8.5z
		 M18.25-0.5c-1.93,0-3.5,1.57-3.5,3.5s1.57,3.5,3.5,3.5s3.5-1.57,3.5-3.5S20.18-0.5,18.25-0.5z"/>
</g>
<g>
	<circle fill="#FFFFFF" cx="33.25" cy="3" r="4.5"/>
	<path fill="#222222" d="M33.25,8.5c-3.032,0-5.5-2.467-5.5-5.5s2.468-5.5,5.5-5.5s5.5,2.467,5.5,5.5S36.282,8.5,33.25,8.5z
		 M33.25-0.5c-1.93,0-3.5,1.57-3.5,3.5s1.57,3.5,3.5,3.5s3.5-1.57,3.5-3.5S35.18-0.5,33.25-0.5z"/>
</g>
<g>
	<circle fill="#FFFFFF" cx="18.25" cy="17" r="4.5"/>
	<path fill="#222222" d="M18.25,22.5c-3.032,0-5.5-2.467-5.5-5.5s2.468-5.5,5.5-5.5s5.5,2.467,5.5,5.5S21.282,22.5,18.25,22.5z
		 M18.25,13.5c-1.93,0-3.5,1.57-3.5,3.5s1.57,3.5,3.5,3.5s3.5-1.57,3.5-3.5S20.18,13.5,18.25,13.5z"/>
</g>
<g>
	<circle fill="#FFFFFF" cx="33.25" cy="17" r="4.5"/>
	<path fill="#222222" d="M33.25,22.5c-3.032,0-5.5-2.467-5.5-5.5s2.468-5.5,5.5-5.5s5.5,2.467,5.5,5.5S36.282,22.5,33.25,22.5z
		 M33.25,13.5c-1.93,0-3.5,1.57-3.5,3.5s1.57,3.5,3.5,3.5s3.5-1.57,3.5-3.5S35.18,13.5,33.25,13.5z"/>
</g>
<g>
	<circle fill="#FFFFFF" cx="18.25" cy="31" r="4.5"/>
	<path fill="#222222" d="M18.25,36.5c-3.032,0-5.5-2.467-5.5-5.5s2.468-5.5,5.5-5.5s5.5,2.467,5.5,5.5S21.282,36.5,18.25,36.5z
		 M18.25,27.5c-1.93,0-3.5,1.57-3.5,3.5s1.57,3.5,3.5,3.5s3.5-1.57,3.5-3.5S20.18,27.5,18.25,27.5z"/>
</g>
<g>
	<circle fill="#FFFFFF" cx="33.25" cy="31" r="4.5"/>
	<path fill="#222222" d="M33.25,36.5c-3.032,0-5.5-2.467-5.5-5.5s2.468-5.5,5.5-5.5s5.5,2.467,5.5,5.5S36.282,36.5,33.25,36.5z
		 M33.25,27.5c-1.93,0-3.5,1.57-3.5,3.5s1.57,3.5,3.5,3.5s3.5-1.57,3.5-3.5S35.18,27.5,33.25,27.5z"/>
</g>
<g>
	<circle fill="#FFFFFF" cx="18.25" cy="45" r="4.5"/>
	<path fill="#222222" d="M18.25,50.5c-3.032,0-5.5-2.467-5.5-5.5s2.468-5.5,5.5-5.5s5.5,2.467,5.5,5.5S21.282,50.5,18.25,50.5z
		 M18.25,41.5c-1.93,0-3.5,1.57-3.5,3.5s1.57,3.5,3.5,3.5s3.5-1.57,3.5-3.5S20.18,41.5,18.25,41.5z"/>
</g>
<g>
	<circle fill="#FFFFFF" cx="33.25" cy="45" r="4.5"/>
	<path fill="#222222" d="M33.25,50.5c-3.032,0-5.5-2.467-5.5-5.5s2.468-5.5,5.5-5.5s5.5,2.467,5.5,5.5S36.282,50.5,33.25,50.5z
		 M33.25,41.5c-1.93,0-3.5,1.57-3.5,3.5s1.57,3.5,3.5,3.5s3.5-1.57,3.5-3.5S35.18,41.5,33.25,41.5z"/>
</g>
</svg>
