<?xml version="1.0" encoding="utf-8"?>
<!-- Generator: Adobe Illustrator 15.0.0, SVG Export Plug-In . SVG Version: 6.00 Build 0)  -->
<!DOCTYPE svg PUBLIC "-//W3C//DTD SVG 1.1//EN" "http://www.w3.org/Graphics/SVG/1.1/DTD/svg11.dtd">
<svg version="1.1" id="Calque_1" xmlns="http://www.w3.org/2000/svg" xmlns:xlink="http://www.w3.org/1999/xlink" x="0px" y="0px"
	 width="173.333px" height="176px" viewBox="-60.5 -62.5 173.333 176" enable-background="new -60.5 -62.5 173.333 176"
	 xml:space="preserve">
<g>
	<g>
		<path fill="#EFDCD2" d="M28.5,79.5c0,2.762-2.238,5-5,5l0,0c-2.761,0-5-2.238-5-5v-24c0-2.762,2.239-5,5-5l0,0
			c2.762,0,5,2.238,5,5V79.5z"/>
	</g>
	<path fill="#222222" d="M23.5,86.5c-3.859,0-7-3.141-7-7v-24c0-3.859,3.141-7,7-7s7,3.141,7,7v24
		C30.5,83.359,27.359,86.5,23.5,86.5z M23.5,52.5c-1.654,0-3,1.346-3,3v24c0,1.654,1.346,3,3,3s3-1.346,3-3v-24
		C26.5,53.846,25.154,52.5,23.5,52.5z"/>
</g>
<g>
	<path fill="#F5C503" d="M52.834,25.834c0-11.43-8.996-20.733-20.29-21.281l-3.968-14.2C27.984-11.767,25.7-13.5,23.5-13.5h-2
		c-2.2,0-4.236,1.784-4.525,3.965l-7.949,60.07C8.736,52.716,10.3,54.5,12.5,54.5h30c2.2,0,3.516-1.733,2.924-3.853l-1.992-7.128
		C49.104,39.686,52.834,33.195,52.834,25.834z"/>
	<path fill="#222222" d="M42.5,56.5h-30c-1.625,0-3.146-0.673-4.175-1.846c-1.028-1.174-1.496-2.771-1.283-4.382l7.95-60.069
		c0.424-3.198,3.281-5.703,6.508-5.703h2c3.094,0,6.17,2.334,7.002,5.314L34.095,2.67c11.741,1.296,20.739,11.203,20.739,23.164
		c0,7.273-3.377,14.081-9.101,18.49l1.616,5.785c0.452,1.618,0.18,3.246-0.748,4.469C45.675,55.799,44.18,56.5,42.5,56.5z
		 M21.5-11.5c-1.197,0-2.385,1.041-2.542,2.228l-7.95,60.069c-0.063,0.476,0.053,0.908,0.326,1.221
		c0.272,0.311,0.687,0.482,1.166,0.482h30c0.424,0,0.749-0.121,0.916-0.341c0.166-0.22,0.195-0.565,0.082-0.974l-2.38-8.516
		l1.194-0.807c5.336-3.607,8.521-9.6,8.521-16.029c0-10.313-8.076-18.783-18.387-19.283l-1.441-0.07L26.65-9.109
		c-0.35-1.252-1.852-2.391-3.15-2.391H21.5z"/>
</g>
<g>
	<path fill="#EFDCD2" d="M25.434-34.157c-6.616-1.62-13.293,2.43-14.912,9.046c-0.018,0.069-0.024,0.139-0.04,0.207
		c-0.341,0.49-0.609,1.042-0.76,1.656L3.775,1.035C3.119,3.717,4.762,6.424,7.443,7.08l1.943,0.477
		c2.682,0.656,5.389-0.986,6.045-3.668l3.496-14.278c0.213,0.063,0.422,0.138,0.641,0.191c6.615,1.62,13.291-2.431,14.912-9.047
		C36.1-25.861,32.05-32.537,25.434-34.157z"/>
</g>
<g>
	<path fill="#EFDCD2" d="M40.754,24.558L30.5,14.072V-3.91c0-3.088-2.963-5.59-6.051-5.59H24.09c-3.088,0-5.59,2.502-5.59,5.59
		v20.554c0,1.835,0.896,3.45,2.263,4.469c0.005,0.005,0.008,0.011,0.013,0.017l11.589,11.588c1.74,1.74,4.92,1.382,7.104-0.801
		l0.37-0.255C42.021,29.479,42.494,26.298,40.754,24.558z"/>
	<path fill="#222222" d="M35.188,35.819L35.188,35.819c-1.645,0-3.148-0.6-4.237-1.688L19.428,22.609
		c-1.863-1.454-2.928-3.619-2.928-5.966V-3.91c0-4.186,3.404-7.59,7.59-7.59h0.359c4.186,0,8.051,3.404,8.051,7.59v17.154
		l9.668,9.899c2.518,2.517,2.043,6.973-0.916,9.932l-0.313,0.255C39.357,34.912,37.224,35.819,35.188,35.819z M22.322,19.847
		l11.456,11.456c0.427,0.428,1.003,0.517,1.409,0.517l0,0c0.969,0,2.041-0.493,2.866-1.317l0.255-0.255
		c1.375-1.376,1.973-3.333,1.031-4.275L28.5,14.901V-3.91c0-1.979-2.071-3.59-4.051-3.59H24.09c-1.979,0-3.59,1.61-3.59,3.59v20.554
		c0,1.13,0.531,2.175,1.459,2.866L22.322,19.847z"/>
</g>
<path fill="#BA9D4A" d="M27.041-33.511C26.334-34.5,14.833-36.166,11.666-27C8.5-17.834,2.613,4.042,2.613,4.042l13.533,3.583
	C16.146,7.625,27.748-32.521,27.041-33.511z"/>
<path fill="#222222" d="M11.579,9.701c-0.56,0-1.121-0.068-1.669-0.203L7.968,9.023C4.219,8.105,1.916,4.309,2.834,0.559
	l5.945-24.282c0.166-0.682,0.443-1.339,0.822-1.959c1.615-6.387,7.31-10.831,13.889-10.831c1.146,0,2.297,0.139,3.42,0.414
	c7.676,1.88,12.393,9.654,10.512,17.33c-1.574,6.434-7.296,10.928-13.911,10.928c-0.001,0-0.001,0-0.001,0
	c-0.703,0-1.409-0.053-2.108-0.156L18.374,4.364C17.605,7.506,14.811,9.701,11.579,9.701z M23.49-32.514
	c-4.768,0-8.891,3.239-10.027,7.878l-0.116,0.553l-0.224,0.321c-0.222,0.319-0.376,0.652-0.459,0.989L6.719,1.51
	c-0.394,1.607,0.594,3.234,2.2,3.629l1.942,0.475c1.604,0.396,3.241-0.62,3.628-2.2l3.997-16.324l2.253,0.68
	c0.101,0.032,0.201,0.065,0.306,0.091c0.81,0.198,1.639,0.299,2.465,0.299c4.768,0,8.892-3.24,10.027-7.879
	c1.355-5.534-2.045-11.139-7.578-12.494C25.146-32.413,24.316-32.514,23.49-32.514z"/>
<path fill="#FB1515" d="M25.738-60.333c-47.191,0-85.584,38.392-85.584,85.583s38.393,85.584,85.584,85.584
	s85.584-38.393,85.584-85.584S72.93-60.333,25.738-60.333z M100.322,25.25c0,17.792-6.271,34.142-16.707,46.975L-21.236-32.627
	C-8.403-43.063,7.946-49.334,25.738-49.334C66.863-49.334,100.322-15.875,100.322,25.25z M-48.846,25.25
	c0-19.381,7.436-37.055,19.598-50.33L76.068,80.236c-13.275,12.162-30.949,19.598-50.33,19.598
	C-15.387,99.834-48.846,66.375-48.846,25.25z"/>
</svg>
