<?xml version="1.0" encoding="utf-8"?>
<!-- Generator: Adobe Illustrator 15.0.0, SVG Export Plug-In . SVG Version: 6.00 Build 0)  -->
<!DOCTYPE svg PUBLIC "-//W3C//DTD SVG 1.1//EN" "http://www.w3.org/Graphics/SVG/1.1/DTD/svg11.dtd">
<svg version="1.1" id="Calque_1" xmlns="http://www.w3.org/2000/svg" xmlns:xlink="http://www.w3.org/1999/xlink" x="0px" y="0px"
	 width="173.333px" height="176px" viewBox="-60.5 -62.5 173.333 176" enable-background="new -60.5 -62.5 173.333 176"
	 xml:space="preserve">
<g>
	<circle fill="#F5C503" cx="28.498" cy="23.271" r="29.756"/>
	<path fill="#222222" d="M28.498,55.527c-17.786,0-32.256-14.47-32.256-32.256S10.712-8.984,28.498-8.984
		s32.256,14.47,32.256,32.256S46.284,55.527,28.498,55.527z M28.498-3.984c-15.029,0-27.256,12.227-27.256,27.256
		c0,15.029,12.227,27.256,27.256,27.256s27.256-12.227,27.256-27.256C55.754,8.243,43.527-3.984,28.498-3.984z"/>
</g>
<path fill="#222222" d="M28-20c-1.381,0-2.5-1.119-2.5-2.5v-17c0-1.381,1.119-2.5,2.5-2.5s2.5,1.119,2.5,2.5v17
	C30.5-21.119,29.381-20,28-20z"/>
<path fill="#222222" d="M28,87c-1.381,0-2.5-1.119-2.5-2.5v-17c0-1.381,1.119-2.5,2.5-2.5s2.5,1.119,2.5,2.5v17
	C30.5,85.881,29.381,87,28,87z"/>
<path fill="#222222" d="M89.5,25.5h-17c-1.381,0-2.5-1.119-2.5-2.5s1.119-2.5,2.5-2.5h17c1.381,0,2.5,1.119,2.5,2.5
	S90.881,25.5,89.5,25.5z"/>
<path fill="#222222" d="M-17.5,25.5h-17c-1.381,0-2.5-1.119-2.5-2.5s1.119-2.5,2.5-2.5h17c1.381,0,2.5,1.119,2.5,2.5
	S-16.119,25.5-17.5,25.5z"/>
<path fill="#222222" d="M59.319-6.32c-0.64,0-1.279-0.244-1.768-0.732c-0.977-0.976-0.977-2.559,0-3.535l12.021-12.021
	c0.977-0.977,2.559-0.977,3.535,0c0.977,0.976,0.977,2.559,0,3.535L61.087-7.053C60.599-6.564,59.959-6.32,59.319-6.32z"/>
<path fill="#222222" d="M-16.341,69.34c-0.64,0-1.279-0.244-1.768-0.732c-0.977-0.977-0.977-2.559,0-3.535l12.021-12.021
	c0.977-0.977,2.559-0.977,3.535,0c0.977,0.976,0.977,2.56,0,3.535l-12.021,12.021C-15.062,69.096-15.701,69.34-16.341,69.34z"/>
<path fill="#222222" d="M71.341,69.34c-0.64,0-1.279-0.244-1.768-0.732L57.552,56.586c-0.977-0.977-0.977-2.559,0-3.535
	s2.559-0.977,3.535,0l12.021,12.021c0.977,0.977,0.977,2.559,0,3.535C72.62,69.096,71.98,69.34,71.341,69.34z"/>
<path fill="#222222" d="M-4.32-6.321c-0.64,0-1.279-0.244-1.768-0.732l-12.021-12.021c-0.977-0.976-0.977-2.559,0-3.535
	c0.977-0.977,2.559-0.977,3.535,0l12.021,12.021c0.977,0.976,0.977,2.559,0,3.535C-3.041-6.565-3.681-6.321-4.32-6.321z"/>
<path fill="#FB1515" d="M27.071-61.333c-47.191,0-85.584,38.393-85.584,85.583c0,47.191,38.393,85.584,85.584,85.584
	s85.584-38.393,85.584-85.584C112.655-22.941,74.263-61.333,27.071-61.333z M101.655,24.25c0,17.792-6.271,34.142-16.707,46.975
	L-19.903-33.626C-7.07-44.063,9.279-50.333,27.071-50.333C68.196-50.333,101.655-16.875,101.655,24.25z M-47.513,24.25
	c0-19.381,7.436-37.055,19.598-50.331L77.401,79.236c-13.275,12.162-30.949,19.598-50.33,19.598
	C-14.054,98.834-47.513,65.375-47.513,24.25z"/>
</svg>
