<?xml version="1.0" encoding="utf-8"?>
<!-- Generator: Adobe Illustrator 15.0.0, SVG Export Plug-In . SVG Version: 6.00 Build 0)  -->
<!DOCTYPE svg PUBLIC "-//W3C//DTD SVG 1.1//EN" "http://www.w3.org/Graphics/SVG/1.1/DTD/svg11.dtd">
<svg version="1.1" id="Calque_1" xmlns="http://www.w3.org/2000/svg" xmlns:xlink="http://www.w3.org/1999/xlink" x="0px" y="0px"
	 width="173.333px" height="176px" viewBox="-60.5 -62.5 173.333 176" enable-background="new -60.5 -62.5 173.333 176"
	 xml:space="preserve">
<g>
	<g>
		<path fill="#80AD9A" d="M-24,12c0,3.025,2.7,5.5,6,5.5h9c3.3,0,6-2.475,6-5.5s-2.7-5.5-6-5.5h-9C-21.3,6.5-24,8.975-24,12z"/>
	</g>
	<path fill="#222222" d="M-9,18.5h-9c-4.136,0-7.5-3.141-7.5-7s3.364-7,7.5-7h9c4.136,0,7.5,3.141,7.5,7S-4.864,18.5-9,18.5z
		 M-18,7.5c-2.481,0-4.5,1.795-4.5,4s2.019,4,4.5,4h9c2.481,0,4.5-1.795,4.5-4s-2.019-4-4.5-4H-18z"/>
</g>
<g>
	<g>
		<path fill="#80AD9A" d="M53,12c0,3.025,2.7,5.5,6,5.5h9c3.3,0,6-2.475,6-5.5s-2.7-5.5-6-5.5h-9C55.7,6.5,53,8.975,53,12z"/>
	</g>
	<path fill="#222222" d="M68,18.5h-9c-4.136,0-7.5-3.141-7.5-7s3.364-7,7.5-7h9c4.136,0,7.5,3.141,7.5,7S72.136,18.5,68,18.5z
		 M59,7.5c-2.481,0-4.5,1.795-4.5,4s2.019,4,4.5,4h9c2.481,0,4.5-1.795,4.5-4s-2.019-4-4.5-4H59z"/>
</g>
<g>
	<g>
		<path fill="#A56658" d="M-6.5,65.5c0,1.657-1.343,3-3,3h-8c-1.657,0-3-1.343-3-3v-19c0-1.657,1.343-3,3-3h8c1.657,0,3,1.343,3,3
			V65.5z"/>
	</g>
	<path fill="#222222" d="M-9,70.5h-8c-2.481,0-4.5-2.019-4.5-4.5V47c0-2.481,2.019-4.5,4.5-4.5h8c2.481,0,4.5,2.019,4.5,4.5v19
		C-4.5,68.481-6.519,70.5-9,70.5z M-17,45.5c-0.827,0-1.5,0.673-1.5,1.5v19c0,0.827,0.673,1.5,1.5,1.5h8c0.827,0,1.5-0.673,1.5-1.5
		V47c0-0.827-0.673-1.5-1.5-1.5H-17z"/>
</g>
<g>
	<g>
		<path fill="#A56658" d="M70.5,65.5c0,1.657-1.343,3-3,3h-8c-1.657,0-3-1.343-3-3v-19c0-1.657,1.343-3,3-3h8c1.657,0,3,1.343,3,3
			V65.5z"/>
	</g>
	<path fill="#222222" d="M68,70.5h-8c-2.481,0-4.5-2.019-4.5-4.5V47c0-2.481,2.019-4.5,4.5-4.5h8c2.481,0,4.5,2.019,4.5,4.5v19
		C72.5,68.481,70.481,70.5,68,70.5z M60,45.5c-0.827,0-1.5,0.673-1.5,1.5v19c0,0.827,0.673,1.5,1.5,1.5h8c0.827,0,1.5-0.673,1.5-1.5
		V47c0-0.827-0.673-1.5-1.5-1.5H60z"/>
</g>
<g>
	<g>
		<path fill="#E3E2A5" d="M57.431-2.745C56.284-7.56,51.296-11.5,46.346-11.5H2.619c-4.95,0-9.938,3.94-11.084,8.755l-5.95,25.239
			C-15.562,27.311-12.45,31.5-7.5,31.5h63.965c4.95,0,8.062-4.189,6.915-9.005L57.431-2.745z"/>
	</g>
	<path fill="#222222" d="M56.465,32.5H-7.5c-2.895,0-5.365-1.11-6.959-3.127c-1.568-1.986-2.071-4.597-1.416-7.352l5.951-24.865
		C-8.635-8.258-3.125-12.5,2.619-12.5h43.727c5.744,0,11.254,4.242,12.543,9.658l5.95,24.862c0.655,2.756,0.153,5.366-1.416,7.353
		C61.83,31.39,59.359,32.5,56.465,32.5z M2.619-9.5c-4.342,0-8.66,3.299-9.625,7.354l-5.951,24.865
		c-0.438,1.841-0.135,3.545,0.854,4.795C-11.093,28.795-9.457,29.5-7.5,29.5h63.965c1.957,0,3.592-0.705,4.604-1.986
		c0.988-1.25,1.291-2.954,0.853-4.797l-5.95-24.862C55.006-6.201,50.688-9.5,46.346-9.5H2.619z"/>
</g>
<path fill="#222222" d="M67.334,16.5h-84.909c-6.421,0-11.925,5.726-11.925,12.723v1.156v3.471v19.662
	c0,1.908,1.684,3.988,3.434,3.988H75.824c1.751,0,2.676-2.08,2.676-3.988V33.85v-3.471v-1.156C78.5,22.226,73.754,16.5,67.334,16.5z
	"/>
<path fill="#80AD9A" d="M64.5,19.5h-80c-6.05,0-11,4.95-11,11v1v3v17c0,1.65,1.35,3,3,3h96c1.65,0,3-1.35,3-3v-17v-3v-1
	C75.5,24.45,70.55,19.5,64.5,19.5z"/>
<g>
	<circle fill="#D6C45F" cx="-13.25" cy="34.25" r="6"/>
	<path fill="#222222" d="M-13.25,41.75c-4.136,0-7.5-3.364-7.5-7.5s3.364-7.5,7.5-7.5s7.5,3.364,7.5,7.5S-9.114,41.75-13.25,41.75z
		 M-13.25,29.75c-2.481,0-4.5,2.019-4.5,4.5s2.019,4.5,4.5,4.5s4.5-2.019,4.5-4.5S-10.769,29.75-13.25,29.75z"/>
</g>
<g>
	<circle fill="#D6C45F" cx="62.75" cy="34.25" r="6"/>
	<path fill="#222222" d="M62.75,41.75c-4.136,0-7.5-3.364-7.5-7.5s3.364-7.5,7.5-7.5s7.5,3.364,7.5,7.5S66.886,41.75,62.75,41.75z
		 M62.75,29.75c-2.481,0-4.5,2.019-4.5,4.5s2.019,4.5,4.5,4.5s4.5-2.019,4.5-4.5S65.231,29.75,62.75,29.75z"/>
</g>
<path fill="#222222" d="M41.5,36.5h-35C5.672,36.5,5,35.828,5,35s0.672-1.5,1.5-1.5h35c0.828,0,1.5,0.672,1.5,1.5
	S42.328,36.5,41.5,36.5z"/>
<path fill="#222222" d="M48.5,45.5h-50C-2.328,45.5-3,44.828-3,44s0.672-1.5,1.5-1.5h50c0.828,0,1.5,0.672,1.5,1.5
	S49.328,45.5,48.5,45.5z"/>
<path fill="#FB1515" d="M26.25-59.333c-47.191,0-85.583,38.392-85.583,85.583s38.392,85.584,85.583,85.584
	s85.584-38.393,85.584-85.584S73.441-59.333,26.25-59.333z M100.834,26.25c0,17.792-6.271,34.142-16.707,46.975L-20.725-31.627
	C-7.892-42.063,8.458-48.334,26.25-48.334C67.375-48.334,100.834-14.875,100.834,26.25z M-48.334,26.25
	c0-19.381,7.436-37.055,19.598-50.33L76.58,81.236c-13.275,12.162-30.949,19.598-50.33,19.598
	C-14.875,100.834-48.334,67.375-48.334,26.25z"/>
</svg>
