<?xml version="1.0" encoding="utf-8"?>
<!-- Generator: Adobe Illustrator 15.0.0, SVG Export Plug-In . SVG Version: 6.00 Build 0)  -->
<!DOCTYPE svg PUBLIC "-//W3C//DTD SVG 1.1//EN" "http://www.w3.org/Graphics/SVG/1.1/DTD/svg11.dtd">
<svg version="1.1" id="Calque_1" xmlns="http://www.w3.org/2000/svg" xmlns:xlink="http://www.w3.org/1999/xlink" x="0px" y="0px"
	 width="173.333px" height="176px" viewBox="-60.5 -62.5 173.333 176" enable-background="new -60.5 -62.5 173.333 176"
	 xml:space="preserve">
<g>
	<path fill="#F8F8F8" d="M-24.58,69.194c0,4.008,3.252,7.261,7.262,7.261h70.196L77.08,52.251V8.684H-24.58V69.194z"/>
	<rect x="-24.58" y="8.684" opacity="0.1" enable-background="new    " width="101.66" height="7.261"/>
	<path fill="#1E9CD3" d="M69.818-15.523h-87.137c-4.01,0-7.262,3.254-7.262,7.261V8.684H77.08V-8.262
		C77.08-12.269,73.826-15.523,69.818-15.523z"/>
	<path id="_Path_" opacity="0.1" enable-background="new    " d="M77.08,52.251H60.139c-4.01,0-7.261,3.253-7.261,7.265v16.939
		L77.08,52.251z"/>
	<g>
		<path fill="#222222" d="M69.818-17.943H55.295v-7.261c0-1.337-1.084-2.42-2.417-2.42c-1.341,0-2.425,1.083-2.425,2.42v7.261H6.885
			v-7.261c0-1.337-1.082-2.42-2.42-2.42c-1.336,0-2.418,1.083-2.418,2.42v7.261h-19.365c-5.351,0-9.682,4.333-9.682,9.681v77.456
			c0,5.352,4.331,9.68,9.682,9.68h70.196c0.636-0.008,1.248-0.27,1.691-0.726l24.203-24.205c0.468-0.438,0.726-1.054,0.726-1.692
			l0,0V-8.262C79.498-13.61,75.169-17.943,69.818-17.943z M-17.318-13.102H2.047v4.84c-2.674,0-4.843,2.169-4.843,4.842
			c0,2.673,2.169,4.843,4.843,4.843c2.337,0.044,4.375-1.584,4.838-3.876c0.063-0.318,0.063-0.646,0-0.966v-9.682h43.568v4.84
			c-2.671,0-4.838,2.169-4.838,4.842c0,2.673,2.167,4.843,4.838,4.843c2.34,0.044,4.378-1.584,4.842-3.876
			c0.063-0.318,0.063-0.646,0-0.966v-9.682h14.523c2.674,0,4.842,2.168,4.842,4.84V6.26h-96.82V-8.262
			C-22.16-10.933-19.99-13.102-17.318-13.102z M50.453,59.516v14.521h-67.771c-2.672,0-4.842-2.169-4.842-4.842V11.103h96.82v38.726
			H60.139C54.787,49.828,50.453,54.163,50.453,59.516z M55.295,70.598V59.516c0-2.676,2.17-4.843,4.844-4.843h11.082L55.295,70.598z
			"/>
		<path fill="#222222" d="M21.406,35.306c0-5.347-4.328-9.68-9.68-9.68c-5.35,0-9.68,4.333-9.68,9.68
			c0,1.339,1.082,2.424,2.418,2.424c1.338,0,2.42-1.085,2.42-2.424c0-2.672,2.17-4.837,4.842-4.837c2.674,0,4.844,2.165,4.844,4.837
			c-0.008,2.543-0.913,4.997-2.569,6.925L2.628,55.492c-0.884,1.005-0.785,2.532,0.222,3.421c0.445,0.393,1.021,0.604,1.615,0.603
			h14.523c1.338,0,2.418-1.086,2.418-2.425c0-1.336-1.08-2.418-2.418-2.418H9.744l7.937-9.298
			C20.082,42.574,21.406,39.001,21.406,35.306z"/>
		<path fill="#222222" d="M43.192,30.469c1.339,0,2.423-1.086,2.423-2.425c0-1.334-1.084-2.418-2.423-2.418H31.094
			c-1.185,0.008-2.186,0.865-2.375,2.033l-2.42,14.521c-0.245,1.314,0.622,2.577,1.935,2.822c0.794,0.15,1.613-0.111,2.178-0.692
			c1.218-1.17,2.869-1.779,4.554-1.692c3.195,0.021,5.785,2.613,5.808,5.809v1.401c0,2.674-2.169,4.845-4.843,4.845
			c-2.671,0-4.836-2.171-4.836-4.845c0-1.334-1.086-2.42-2.424-2.42c-1.336,0-2.42,1.086-2.42,2.42c0,5.351,4.334,9.688,9.68,9.688
			c5.353,0,9.686-4.337,9.686-9.688v-1.401c-0.225-6.119-5.359-10.901-11.479-10.679c-0.765,0.028-1.524,0.137-2.271,0.317
			l1.26-7.597H43.192z"/>
	</g>
</g>
<path fill="#FB1515" d="M26.249-59.959c-47.191,0-85.584,38.393-85.584,85.584s38.393,85.584,85.584,85.584
	s85.584-38.393,85.584-85.584S73.44-59.959,26.249-59.959z M100.833,25.625c0,17.792-6.271,34.142-16.707,46.975L-20.726-32.252
	C-7.893-42.688,8.457-48.959,26.249-48.959C67.374-48.959,100.833-15.501,100.833,25.625z M-48.335,25.625
	c0-19.381,7.436-37.055,19.598-50.331L76.579,80.611c-13.275,12.162-30.949,19.598-50.33,19.598
	C-14.876,100.209-48.335,66.75-48.335,25.625z"/>
</svg>
