<?xml version="1.0" encoding="utf-8"?>
<!-- Generator: Adobe Illustrator 15.0.0, SVG Export Plug-In . SVG Version: 6.00 Build 0)  -->
<!DOCTYPE svg PUBLIC "-//W3C//DTD SVG 1.1//EN" "http://www.w3.org/Graphics/SVG/1.1/DTD/svg11.dtd">
<svg version="1.1" id="Calque_1" xmlns="http://www.w3.org/2000/svg" xmlns:xlink="http://www.w3.org/1999/xlink" x="0px" y="0px"
	 width="38.167px" height="63.375px" viewBox="6.5 -7.75 38.167 63.375" enable-background="new 6.5 -7.75 38.167 63.375"
	 xml:space="preserve">
<g>
	<g>
		<path fill="#ABCFD3" d="M35.892,14.141c-0.629-0.902-1.392-2.538-1.392-3.634v-0.014c0-1.096-0.9-1.993-2-1.993h-13
			c-1.1,0-2,0.899-2,1.998v0.005c0,1.099-0.675,2.732-1.311,3.629l-5.507,7.736C10.046,22.766,9.5,24.4,9.5,25.5v24c0,1.1,0.9,2,2,2
			h29c1.1,0,2-0.9,2-2v-24c0-1.1-0.557-2.738-1.186-3.641L35.892,14.141z"/>
	</g>
	<path fill="#222222" d="M40.5,52.5h-29c-1.654,0-3-1.346-3-3v-24c0-1.278,0.6-3.127,1.365-4.209l5.51-7.739
		c0.531-0.75,1.125-2.188,1.125-3.049c0-1.658,1.346-3.002,3-3.002h13c1.654,0,3,1.343,3,2.993c0,0.805,0.627,2.236,1.212,3.076
		l5.421,7.716C42.9,22.386,43.5,24.236,43.5,25.5v24C43.5,51.154,42.154,52.5,40.5,52.5z M19.5,9.5c-0.552,0-1,0.447-1,0.998
		c0,1.367-0.771,3.189-1.494,4.212l-5.51,7.738C10.967,23.197,10.5,24.625,10.5,25.5v24c0,0.551,0.448,1,1,1h29c0.552,0,1-0.449,1-1
		v-24c0-0.866-0.47-2.3-1.006-3.069l-5.421-7.716c-0.634-0.909-1.573-2.777-1.573-4.208c0-0.562-0.448-1.007-1-1.007H19.5z"/>
</g>
<g>
	<g>
		<path fill="#FFFFFF" d="M35.218,1.196C34.823,0.813,34.05,0.5,33.5,0.5h-15c-0.55,0-1.328,0.308-1.729,0.684l-0.541,0.507
			C15.828,2.068,15.5,2.826,15.5,3.375V7.5c0,0.55,0.45,1,1,1h19c0.55,0,1-0.45,1-1V3.438c0-0.55-0.323-1.313-0.718-1.696
			L35.218,1.196z"/>
	</g>
	<path fill="#222222" d="M35.5,9.5h-19c-1.103,0-2-0.897-2-2V3.375c0-0.83,0.439-1.845,1.045-2.414l0.542-0.507
		C16.676-0.099,17.691-0.5,18.5-0.5h15c0.814,0,1.83,0.411,2.414,0.978l0.563,0.545C37.07,1.599,37.5,2.614,37.5,3.438V7.5
		C37.5,8.603,36.603,9.5,35.5,9.5z M35.5,7.5v1V7.5L35.5,7.5L35.5,7.5z M18.5,1.5c-0.294,0-0.831,0.212-1.045,0.414l-0.542,0.507
		C16.713,2.609,16.5,3.1,16.5,3.375V7.5h18.997L35.5,3.438c0-0.28-0.213-0.783-0.414-0.978l-0.563-0.545
		C34.314,1.712,33.789,1.5,33.5,1.5H18.5z"/>
</g>
<rect x="18.5" y="5.5" fill="#222222" width="2" height="3"/>
<rect x="22.5" y="5.5" fill="#222222" width="2" height="3"/>
<rect x="26.5" y="5.5" fill="#222222" width="2" height="3"/>
<rect x="30.5" y="5.5" fill="#222222" width="2" height="3"/>
<g>
	<g>
		<path fill="#FFFFFF" d="M37.5,44.5c0,1.1-0.9,2-2,2h-19c-1.1,0-2-0.9-2-2v-17c0-1.1,0.9-2,2-2h19c1.1,0,2,0.9,2,2V44.5z"/>
	</g>
	<path fill="#222222" d="M34.5,47.5h-2v-2h2V47.5z M30.5,47.5h-2v-2h2V47.5z M26.5,47.5h-2v-2h2V47.5z M22.5,47.5h-2v-2h2V47.5z
		 M18.5,47.5h-2v-2h2V47.5z M37.105,47.032l-1.074-1.688c0.294-0.187,0.469-0.503,0.469-0.845l2-0.023V44.5
		C38.5,45.529,37.979,46.477,37.105,47.032z M13.966,46.104c-0.305-0.48-0.466-1.035-0.466-1.604v-1h2v1
		c0,0.188,0.054,0.373,0.155,0.532L13.966,46.104z M38.5,42.5h-2v-2h2V42.5z M15.5,41.5h-2v-2h2V41.5z M38.5,38.5h-2v-2h2V38.5z
		 M15.5,37.5h-2v-2h2V37.5z M38.5,34.5h-2v-2h2V34.5z M15.5,33.5h-2v-2h2V33.5z M38.5,30.5h-2v-2h2V30.5z M15.5,29.5h-2v-2h2V29.5z
		 M36.342,26.964C36.155,26.674,35.84,26.5,35.5,26.5l-0.011-2H35.5c1.023,0,1.967,0.516,2.523,1.381L36.342,26.964z M15.964,26.658
		l-1.084-1.681c0.484-0.312,1.044-0.477,1.619-0.477H17.5v2h-1C16.31,26.5,16.124,26.555,15.964,26.658z M33.5,26.5h-2v-2h2V26.5z
		 M29.5,26.5h-2v-2h2V26.5z M25.5,26.5h-2v-2h2V26.5z M21.5,26.5h-2v-2h2V26.5z"/>
</g>
<g>
	<g>
		<path fill="#FB1515" d="M31.5,36.5c0-0.55-0.45-1-1-1h-2c-0.55,0-1-0.45-1-1v-2c0-0.55-0.45-1-1-1h-1c-0.55,0-1,0.45-1,1v2
			c0,0.55-0.45,1-1,1h-2c-0.55,0-1,0.45-1,1v1c0,0.55,0.45,1,1,1h2c0.55,0,1,0.45,1,1v2c0,0.55,0.45,1,1,1h1c0.55,0,1-0.45,1-1v-2
			c0-0.55,0.45-1,1-1h2c0.55,0,1-0.45,1-1V36.5z"/>
	</g>
	<path fill="#222222" d="M26.5,43.5h-1c-1.103,0-2-0.896-2-2v-2h-2c-1.103,0-2-0.896-2-2v-1c0-1.104,0.897-2,2-2h2v-2
		c0-1.104,0.897-2,2-2h1c1.103,0,2,0.896,2,2v2h2c1.103,0,2,0.896,2,2v1c0,1.104-0.897,2-2,2h-2v2
		C28.5,42.604,27.603,43.5,26.5,43.5z M26.5,41.5v1V41.5L26.5,41.5L26.5,41.5z M21.5,36.5v1h2c1.103,0,2,0.896,2,2v2h0.997l0.003-2
		c0-1.104,0.897-2,2-2h2v-1h-2c-1.103,0-2-0.896-2-2v-2h-1v2c0,1.104-0.897,2-2,2H21.5z"/>
</g>
</svg>
