<?xml version="1.0" encoding="utf-8"?>
<!-- Generator: Adobe Illustrator 15.0.0, SVG Export Plug-In . SVG Version: 6.00 Build 0)  -->
<!DOCTYPE svg PUBLIC "-//W3C//DTD SVG 1.1//EN" "http://www.w3.org/Graphics/SVG/1.1/DTD/svg11.dtd">
<svg version="1.1" id="Calque_1" xmlns="http://www.w3.org/2000/svg" xmlns:xlink="http://www.w3.org/1999/xlink" x="0px" y="0px"
	 width="140.333px" height="149.667px" viewBox="0 0 140.333 149.667" enable-background="new 0 0 140.333 149.667"
	 xml:space="preserve">
<g>
	<defs>
		<circle id="SVGID_1_" cx="44" cy="55" r="41.667"/>
	</defs>
	<clipPath id="SVGID_2_">
		<use xlink:href="#SVGID_1_"  overflow="visible"/>
	</clipPath>
	<g clip-path="url(#SVGID_2_)">
		<path fill-rule="evenodd" clip-rule="evenodd" d="M66.386-22.158c0,10.548,0,21.095,0,31.642c-10.549,0-21.096,0-31.644,0
			c0.345-10.375-0.69-22.131,0.52-31.642C45.636-22.158,56.01-22.158,66.386-22.158z M39.412-17.489c0,7.436,0,14.87,0,22.305
			c7.435,0,14.871,0,22.306,0c0-7.435,0-14.87,0-22.305C54.283-17.489,46.846-17.489,39.412-17.489z"/>
		<path fill-rule="evenodd" clip-rule="evenodd" d="M129.67-22.158c0,10.548,0,21.095,0,31.642c-10.547,0-21.096,0-31.643,0
			c0.346-10.375-0.69-22.131,0.519-31.642C108.921-22.158,119.296-22.158,129.67-22.158z M102.696-17.489c0,7.436,0,14.87,0,22.305
			c7.436,0,14.87,0,22.307,0c0-7.435,0-14.87,0-22.305C117.566-17.489,110.131-17.489,102.696-17.489z"/>
		<path fill-rule="evenodd" clip-rule="evenodd" fill="#FFFFFF" d="M61.717-17.489c0,7.436,0,14.87,0,22.305
			c-7.435,0-14.871,0-22.306,0c0-7.435,0-14.87,0-22.305C46.846-17.489,54.283-17.489,61.717-17.489z M44.081-13.339
			c-1.154,3.514-0.215,9.123-0.52,13.487c3.516,1.154,9.123,0.214,13.486,0.519c1.156-3.514,0.216-9.123,0.52-13.487
			C54.054-13.975,48.444-13.035,44.081-13.339z"/>
		<path fill-rule="evenodd" clip-rule="evenodd" fill="#FFFFFF" d="M125.002-17.489c0,7.436,0,14.87,0,22.305
			c-7.437,0-14.871,0-22.307,0c0-7.435,0-14.87,0-22.305C110.131-17.489,117.566-17.489,125.002-17.489z M107.365-13.339
			c-1.154,3.514-0.214,9.123-0.52,13.487c3.515,1.154,9.123,0.214,13.488,0.519c1.154-3.514,0.214-9.123,0.518-13.487
			C117.337-13.975,111.728-13.035,107.365-13.339z"/>
		<path fill-rule="evenodd" clip-rule="evenodd" d="M57.567-12.821c-0.304,4.364,0.637,9.973-0.52,13.487
			c-4.363-0.305-9.971,0.635-13.486-0.519c0.305-4.364-0.635-9.973,0.52-13.487C48.444-13.035,54.054-13.975,57.567-12.821z"/>
		<path fill-rule="evenodd" clip-rule="evenodd" d="M120.851-12.821c-0.304,4.364,0.637,9.973-0.518,13.487
			c-4.365-0.305-9.974,0.635-13.488-0.519c0.306-4.364-0.635-9.973,0.52-13.487C111.728-13.035,117.337-13.975,120.851-12.821z"/>
		<path fill-rule="evenodd" clip-rule="evenodd" d="M116.184,27.64c1.555,0,3.112,0,4.667,0c0,1.556,0,3.112,0,4.668
			c-1.555,0-3.112,0-4.667,0C116.184,30.752,116.184,29.196,116.184,27.64z"/>
		<path fill-rule="evenodd" clip-rule="evenodd" d="M66.386,41.127c0,10.547,0,21.094,0,31.642c-10.549,0-21.096,0-31.644,0
			c0.345-10.375-0.69-22.131,0.52-31.642C45.636,41.127,56.01,41.127,66.386,41.127z M39.412,45.795c0,7.436,0,14.87,0,22.306
			c7.435,0,14.871,0,22.306,0c0-7.436,0-14.87,0-22.306C54.283,45.795,46.846,45.795,39.412,45.795z"/>
		<path fill-rule="evenodd" clip-rule="evenodd" d="M57.567,50.464c-0.304,4.364,0.637,9.973-0.52,13.487
			c-4.363-0.305-9.971,0.635-13.486-0.519c0.305-4.364-0.635-9.973,0.52-13.487C48.444,50.25,54.054,49.31,57.567,50.464z"/>
		<path fill-rule="evenodd" clip-rule="evenodd" d="M71.053,63.951c2.94,0,5.88,0,8.819,0c0,1.383,0,2.766,0,4.15
			c-1.385,0-2.767,0-4.149,0c-0.87,0.86-0.413,3.044-0.52,4.668c-1.383,0-2.766,0-4.15,0C71.053,69.83,71.053,66.89,71.053,63.951z"
			/>
		<path fill-rule="evenodd" clip-rule="evenodd" d="M120.851,68.101c1.385,0,2.768,0,4.151,0c0,1.556,0,3.112,0,4.668
			c-1.384,0-2.767,0-4.151,0C120.851,71.213,120.851,69.657,120.851,68.101z"/>
		<path fill-rule="evenodd" clip-rule="evenodd" d="M75.204-4.002c0-1.384,0-2.767,0-4.15c-0.387-1.17-2.908-0.203-4.15-0.519
			c0-2.939,0-5.879,0-8.819c1.385,0,2.768,0,4.15,0c0-1.556,0-3.112,0-4.668c1.557,0,3.112,0,4.669,0c0,6.052,0,12.104,0,18.156
			C78.316-4.002,76.76-4.002,75.204-4.002c0,4.322,0,8.646,0,12.968c0.386,1.17,2.91,0.203,4.149,0.519
			c1.179-0.552,0.199-3.26,0.52-4.668c1.556,0,3.112,0,4.669,0c0,1.556,0,3.112,0,4.668c1.556,0,3.112,0,4.668,0
			c0-1.383,0-2.766,0-4.149c-0.86-0.869-3.045-0.413-4.668-0.519c0-1.383,0-2.766,0-4.149c1.383,0,2.766,0,4.149,0
			c0.803-0.754,0.456-2.656,0.519-4.15c-0.553-1.177-3.261-0.197-4.668-0.519c0-1.556,0-3.112,0-4.668c1.556,0,3.112,0,4.668,0
			c0-1.383,0-2.767,0-4.15c-0.553-1.177-3.261-0.197-4.668-0.519c0-2.94,0-5.878,0-8.818c2.939,0,5.878,0,8.817,0
			c0,1.556,0,3.112,0,4.668c-1.383,0-2.766,0-4.149,0c0,1.21,0,2.421,0,3.631c0.386,1.171,2.91,0.203,4.149,0.519
			c0,1.557,0,3.113,0,4.669c-1.383,0-2.766,0-4.149,0c0,1.383,0,2.766,0,4.15c0.386,1.169,2.91,0.203,4.149,0.519
			c0,6.052,0,12.103,0,18.156c-2.766,0-5.532,0-8.3,0c-1.17,0.386-0.202,2.909-0.518,4.149c-3.113,0-6.226,0-9.338,0
			c0-1.383,0-2.767,0-4.149c-1.383,0-2.766,0-4.15,0c0,2.938,0,5.878,0,8.818c-1.555,0-3.111,0-4.667,0c0,1.556,0,3.112,0,4.668
			c-1.557,0-3.112,0-4.669,0c0-1.556,0-3.112,0-4.668c1.557,0,3.112,0,4.669,0c0-1.384,0-2.767,0-4.15
			c-0.553-1.177-3.262-0.197-4.669-0.519c0-1.383,0-2.767,0-4.149c2.939,0,5.879,0,8.818,0c1.207-5.018,0.175-12.275,0.518-18.156
			C72.438-4.002,73.821-4.002,75.204-4.002z"/>
		<path fill-rule="evenodd" clip-rule="evenodd" d="M89.209,32.309c1.384,0,2.767,0,4.149,0c0,1.383,0,2.767,0,4.15
			c-1.383,0-2.766,0-4.149,0c0,1.556,0,3.112,0,4.668c-1.556,0-3.112,0-4.668,0c0-1.556,0-3.112,0-4.668c1.383,0,2.766,0,4.149,0
			C89.86,36.072,88.894,33.549,89.209,32.309z"/>
		<path fill-rule="evenodd" clip-rule="evenodd" d="M116.184,27.64c-1.558,0-3.112,0-4.67,0c0-1.556,0-3.112,0-4.668
			c-1.21,0-2.42,0-3.63,0c-1.171,0.386-0.204,2.909-0.52,4.149c0.387,1.17,2.91,0.203,4.149,0.519c0,2.939,0,5.879,0,8.819
			c-1.383,0-2.767,0-4.149,0c0,1.556,0,3.112,0,4.668c1.21,0,2.42,0,3.632,0c1.177-0.553,0.197-3.261,0.518-4.668
			c2.94,0,5.88,0,8.819,0c1.169-0.387,0.202-2.91,0.518-4.15c1.385,0,2.768,0,4.151,0c0-1.556,0-3.112,0-4.668
			c1.556,0,3.11,0,4.668,0c0,1.556,0,3.112,0,4.668c-1.383,0-2.768,0-4.15,0c-1.17,0.386-0.203,2.91-0.518,4.15
			c-1.384,0-2.767,0-4.151,0c0,1.382,0,2.766,0,4.149c0.387,1.17,2.91,0.202,4.151,0.519c0,1.556,0,3.112,0,4.668
			c-2.939,0-5.879,0-8.818,0c0-1.556,0-3.112,0-4.668c-1.558,0-3.112,0-4.67,0c0,3.112,0,6.224,0,9.336c-1.383,0-2.767,0-4.149,0
			c-0.868-0.86-0.412-3.045-0.52-4.668c-2.766,0-5.532,0-8.299,0c-1.159,0.224-0.211,2.557-0.519,3.631
			c0.579,1.323,4.012-0.208,4.668,1.037c0,1.384,0,2.767,0,4.15c-3.112,0-6.225,0-9.337,0c0-1.383,0-2.766,0-4.15
			c-1.383,0-2.766,0-4.149,0c0,2.767,0,5.533,0,8.3c0.386,1.17,2.91,0.202,4.149,0.519c0,1.556,0,3.112,0,4.668
			c2.939,0,5.879,0,8.819,0c1.177-0.552,0.197-3.261,0.518-4.668c1.384,0,2.767,0,4.149,0c0.107-1.624-0.349-3.809,0.52-4.669
			c2.939,0,5.879,0,8.819,0c0,1.556,0,3.112,0,4.669c1.555,0,3.112,0,4.667,0c0-3.113,0-6.225,0-9.337c1.385,0,2.768,0,4.151,0
			c0,1.556,0,3.112,0,4.668c1.556,0,3.11,0,4.668,0c0,3.112,0,6.225,0,9.337c-1.383,0-2.768,0-4.15,0
			c-0.867-0.861-0.412-3.045-0.518-4.668c-1.212,0-2.422,0-3.632,0c-1.323,0.578,0.207,4.012-1.037,4.668c-1.385,0-2.768,0-4.149,0
			c0-1.556,0-3.112,0-4.668c-1.558,0-3.112,0-4.67,0c0,2.766,0,5.532,0,8.3c0.553,1.177,3.261,0.197,4.67,0.519
			c0,1.556,0,3.112,0,4.668c-1.558,0-3.112,0-4.67,0c0-1.384,0-2.767,0-4.149c-0.552-1.178-3.26-0.197-4.669-0.519
			c0-1.384,0-2.767,0-4.15c-1.21,0-2.42,0-3.63,0c-1.171,0.386-0.202,2.909-0.52,4.15c-2.939,0-5.879,0-8.817,0
			c-1.177,0.552-0.197,3.26-0.52,4.668c-2.939,0-5.878,0-8.817,0c0-1.556,0-3.112,0-4.668c2.766,0,5.532,0,8.3,0
			c1.159-0.224,0.209-2.557,0.518-3.631c-0.387-1.169-2.91-0.203-4.149-0.519c0-1.556,0-3.112,0-4.668c-3.112,0-6.225,0-9.337,0
			c0-1.557,0-3.113,0-4.669c1.556,0,3.112,0,4.669,0c0-1.21,0-2.42,0-3.631c-0.388-1.17-2.91-0.203-4.149-0.519
			c-1.171,0.386-0.204,2.91-0.52,4.15c-1.557,0-3.112,0-4.669,0c0,1.556,0,3.112,0,4.669c-1.383,0-2.766,0-4.15,0
			c0-1.557,0-3.113,0-4.669c1.385,0,2.768,0,4.15,0c0-1.383,0-2.766,0-4.15c0.754-0.801,2.656-0.456,4.149-0.519
			c1.171-0.386,0.204-2.909,0.52-4.15c5.879,0,11.757,0,17.636,0c1.171-0.386,0.204-2.91,0.52-4.149
			c-0.552-1.177-3.262-0.197-4.669-0.519c0-1.556,0-3.112,0-4.668c4.497,0,8.991,0,13.486,0c0-2.767,0-5.533,0-8.3
			c-0.222-1.16-2.555-0.21-3.63-0.519c-1.178,0.552-0.197,3.261-0.52,4.668c-1.556,0-3.112,0-4.668,0c0-3.112,0-6.225,0-9.337
			c1.556,0,3.112,0,4.668,0c0-1.384,0-2.767,0-4.15c-0.753-0.802-2.655-0.457-4.149-0.519c-1.178,0.552-0.197,3.26-0.519,4.668
			c-1.384,0-2.767,0-4.149,0c-1.177,0.552-0.197,3.261-0.52,4.668c-1.383,0-2.766,0-4.149,0c0,1.556,0,3.112,0,4.668
			c-1.383,0-2.768,0-4.15,0c-1.17,0.386-0.202,2.91-0.518,4.15c-2.939,0-5.879,0-8.818,0c-1.202,2.083-0.182,6.39-0.52,9.336
			c-1.383,0-2.766,0-4.15,0c0-3.112,0-6.224,0-9.336c1.385,0,2.768,0,4.15,0c0-1.384,0-2.767,0-4.15c-2.766,0-5.532,0-8.3,0
			c-1.169,0.386-0.202,2.91-0.518,4.15c-1.557,0-3.112,0-4.669,0c0-1.384,0-2.767,0-4.15c1.382,0,2.767,0,4.149,0
			c1.177-0.552,0.197-3.26,0.52-4.668c1.556,0,3.112,0,4.667,0c0-1.556,0-3.112,0-4.668c2.94,0,5.88,0,8.819,0
			c0,1.556,0,3.112,0,4.668c2.939,0,5.879,0,8.818,0c1.178-0.552,0.197-3.26,0.519-4.668c1.384,0,2.767,0,4.149,0
			c0.106-1.624-0.351-3.808,0.52-4.668c1.21,0,2.42,0,3.63,0c1.171-0.386,0.204-2.91,0.52-4.149c4.495,0,8.992,0,13.486,0
			c0,1.382,0,2.766,0,4.149c1.383,0,2.768,0,4.15,0c1.17-0.386,0.202-2.91,0.52-4.149c2.939,0,5.879,0,8.818,0
			c0,2.938,0,5.878,0,8.818c-1.384,0-2.767,0-4.151,0c0-1.384,0-2.767,0-4.15C114.975,15.471,116.069,23.299,116.184,27.64z"/>
		<path fill-rule="evenodd" clip-rule="evenodd" d="M48.231,22.972c-2.768,0-5.534,0-8.3,0c-1.177,0.552-0.197,3.261-0.52,4.668
			c2.767,0,5.534,0,8.3,0C48.888,27.088,47.909,24.38,48.231,22.972c1.555,0,3.111,0,4.667,0c0-1.556,0-3.112,0-4.668
			c1.623,0.106,3.81-0.35,4.669,0.519c0,2.939,0,5.878,0,8.818c-2.939,0-5.879,0-8.818,0c-1.169,0.386-0.202,2.91-0.518,4.149
			c0.551,1.178,3.26,0.198,4.667,0.519c0,1.383,0,2.767,0,4.15c-4.495,0-8.991,0-13.486,0c0-1.384,0-2.767,0-4.15
			c-1.556,0-3.112,0-4.669,0c0-3.112,0-6.225,0-9.337c1.557,0,3.113,0,4.669,0c0-1.384,0-2.767,0-4.15
			c-0.859-0.869-3.045-0.413-4.669-0.519c0-1.383,0-2.767,0-4.149c2.939,0,5.879,0,8.818,0c0,1.382,0,2.766,0,4.149
			c1.385,0,2.768,0,4.15,0c1.17-0.386,0.203-2.91,0.52-4.149c1.555,0,3.111,0,4.667,0c0,1.382,0,2.766,0,4.149
			c-1.383,0-2.766,0-4.149,0C47.571,18.855,48.551,21.563,48.231,22.972z"/>
	</g>
</g>
<g transform="translate(0,-952.36218)">
	<g>
		<path fill="#222222" d="M44.13,963.333c-24.17,0-43.828,19.658-43.828,43.827c0,24.166,19.658,43.824,43.828,43.824
			c11.002,0,21.06-4.096,28.76-10.814l40.142,40.145c1.12,1.148,3.17,1.186,4.301,0.045c1.129-1.137,1.112-3.238-0.049-4.344
			l-40.096-40.096c6.708-7.7,10.767-17.765,10.767-28.759C87.955,982.991,68.296,963.333,44.13,963.333z M44.13,969.378
			c20.902,0,37.78,16.88,37.78,37.782s-16.878,37.781-37.78,37.781c-20.901,0-37.78-16.879-37.78-37.781
			S23.229,969.378,44.13,969.378z"/>
	</g>
</g>
<g>
	<g>
		<path fill="#4D9FEC" d="M135.583,131.067c1.167,1.166,1.166,3.075,0,4.242l-10.607,10.606c-1.166,1.167-3.075,1.166-4.242,0
			l-41.273-41.274c-1.167-1.166-1.166-3.075,0-4.242l10.607-10.606c1.166-1.167,3.075-1.166,4.242,0L135.583,131.067z"/>
	</g>
	<path fill="#222222" d="M122.854,149.291c-1.471,0-2.852-0.571-3.889-1.606l-41.273-41.275c-1.037-1.035-1.607-2.416-1.607-3.889
		c0-1.471,0.57-2.853,1.607-3.889l10.607-10.606c1.037-1.036,2.418-1.607,3.889-1.607s2.852,0.571,3.889,1.606l41.273,41.275
		c1.037,1.035,1.607,2.416,1.607,3.889c0,1.471-0.57,2.853-1.607,3.889l-10.607,10.606
		C125.706,148.719,124.325,149.291,122.854,149.291z M92.188,91.417c-0.096,0-0.235,0.024-0.354,0.144l-10.607,10.605
		c-0.118,0.119-0.143,0.258-0.143,0.354c0,0.097,0.024,0.236,0.143,0.354l41.273,41.274c0.236,0.235,0.471,0.235,0.707-0.001
		l10.607-10.605c0.118-0.119,0.143-0.258,0.143-0.354c0-0.097-0.024-0.236-0.143-0.354L92.542,91.56
		C92.423,91.442,92.284,91.417,92.188,91.417z"/>
</g>
<g>
	<path fill="none" d="M60.333,19.667c0,0-0.891,0-1.535,0c-0.548,0-0.092,1-0.24,2c0.724,0,1.775,0,1.775,0
		C60.333,20.853,60.333,20.252,60.333,19.667z"/>
	<path fill="none" d="M64.333,12.667c0-0.384,0-0.785,0-1.198c-0.528-0.246-1.063-0.481-1.602-0.708
		c-0.024,0.099-0.042,0.205-0.072,0.298c-2.03-0.142-4.639,0.295-6.274-0.242c0.048-0.689,0.028-1.446,0.004-2.208
		c-0.68-0.179-1.364-0.345-2.056-0.494c0,1.598,0,3.18,0,4.551C58.333,12.667,61.333,12.667,64.333,12.667z"/>
	<path fill="none" d="M85.828,31.667c-1.287,0-2.574,0-3.861,0c-0.539,0,0.121,1.383-0.023,1.883
		c0.27,0.616,1.391,0.097,2.391,0.676c0,0.644,0,1.44,0,1.44c-2,0-3,0-5,0v-1c0,0-1,0-2,0c0,1,0,2.134,0,3.421
		c0,0.544,2,0.094,2,0.241c0,0.724,0,1.337,0,2.337c2,0,2.955,0,4.322,0c0.548,0,0.092-2,0.241-2c0.644,0,1.287,0,1.931,0
		c0.05-1-0.162-2,0.241-3c0.71,0,1.296,0,1.972,0c-0.147-0.335-0.3-0.668-0.455-1c-0.594,0-1.051,0-1.517,0
		C85.666,33.667,85.877,32.667,85.828,31.667z"/>
	<path fill="#222222" d="M52.525,0.667c-0.283,2.012-0.303,4.53-0.271,7.045c0.699,0.118,1.392,0.256,2.08,0.404
		c0-1.898,0-3.82,0-5.449c4,0,7,0,10,0c0,2.616,0,5.992,0,8.802c1.02,0.474,2.021,0.98,3,1.522c0-3.678,0-8,0-12.324
		C62.333,0.667,57.351,0.667,52.525,0.667z"/>
	<path fill="#222222" d="M81.725,14.667c4.907,0,9.608,0,14.608,0c0-4,0-9,0-14c-5,0-9.54,0-14.367,0
		C81.404,4.667,81.886,10.667,81.725,14.667z M84.333,2.667c3,0,6,0,10,0c0,3,0,7,0,10c-4,0-7,0-10,0
		C84.333,9.667,84.333,5.667,84.333,2.667z"/>
	<path fill="#222222" d="M62.902,4.784c-1.635-0.537-4.245-0.099-6.274-0.241c-0.354,1.08-0.285,2.584-0.238,4.067
		c2.179,0.572,4.297,1.291,6.343,2.151C63.14,9.119,62.768,6.699,62.902,4.784z"/>
	<path fill="#222222" d="M92.343,4.784c-1.635-0.537-4.244-0.099-6.274-0.241c-0.537,1.635-0.1,4.244-0.241,6.274
		c1.635,0.537,4.244,0.1,6.275,0.242C92.639,9.424,92.202,6.814,92.343,4.784z"/>
	<path fill="#222222" d="M75.333,4.542c1,0.149,2-0.306,2,0.241c0,0.644,0,0.883,0,1.883c1,0,2,0,2,0c0-1,0-1.4,0-2.124
		c0-0.147-2,0.303-2-0.241c0-0.563,0-0.635,0-1.635c1,0,2,0,2,0c0-1,0-2,0-2c-1,0-3,0-4,0C75.333,1.667,75.333,3.175,75.333,4.542z"
		/>
	<path fill="#222222" d="M75.692,17.667c1.287,0,2.642,0,3.642,0c0-3,0-5.964,0-8.78c0-0.124-1.412,0.17-1.857-0.059
		c0.032,0.03,0.066,0.058,0.088,0.104c-0.029,0.694,0.19,1.734-0.183,1.734c-0.644,0-1.048,0-2.048,0c0,0.836,0,1.445,0,2
		c-1,0-1.331,0-2.055,0c-0.149,1,0.42,2.076-0.129,2.333c-0.576-0.146-1.816,0.465-1.816-0.08c0-2.011,0-4.253,0-6.253
		c-1,0-1.514,0-2.158,0c-0.096,1.81,0.038,3.619,0.039,5.428c2.204,1.354,4.289,2.882,6.238,4.565
		C75.403,18.09,75.338,17.667,75.692,17.667z M75.333,12.989c1,0.049,2-0.163,2,0.241c0,0.644,0,1.436,0,1.436s-1,0-2,0
		C75.333,14.667,75.333,13.871,75.333,12.989z"/>
	<path fill="#222222" d="M75.333,8.887c0.851,0.127,1.677-0.319,2.064-0.121c-0.032-0.035-0.064-0.069-0.064-0.121
		c0-0.644,0-0.979,0-1.979c0,0-1,0-2,0C75.333,7.667,75.333,8.163,75.333,8.887z"/>
	<path fill="#222222" d="M73.333,0.667c-1,0-2,0-2,0s0,1,0,2c-1,0-2,0-2,0c0,1,0,2.681,0,4.048c0,0.146,2-0.303,2,0.241
		c0,0.643,0,1.71,0,1.71s1,0,2,0C73.333,5.667,73.333,3.667,73.333,0.667z"/>
	<path fill="#222222" d="M92.103,40.667c0.578,0-0.134-2,0.482-2c0.563,0,1.125,0,1.689,0c0.049,0-0.163,1,0.24,2
		c0.644,0,0.818,0,1.818,0c0-2,0-3,0-5c-1,0-1,0-2,0c0,0,0-1,0-2c-1,0-1,0-2,0c0,2,0,3,0,5c-1,0-1,0-2,0c0,0,0,1,0,2
		C90.333,40.667,91.458,40.667,92.103,40.667z"/>
	<path fill="#222222" d="M88.333,34.667c0-2,0-3,0-5c0,0,1,0,2,0c0,1,0,2,0,2c1,0,3,0,4,0c0,0,0-1.061,0-1.784
		c-1-0.147-2,0.303-2-0.241c0-0.644,0-0.975,0-1.975c1,0,1.298,0,1.941,0c0.146-1-0.304-2,0.24-2c0.644,0,0.818,0,1.818,0
		c0-1,0-1,0-2c-1,0-1,0-2,0c0,1,0,1,0,2c-1,0-1.346,0-1.99,0c-0.146,1,0.303,2-0.24,2c-1.257,0-2.513,0-3.77,0c0-0.986,0-2.643,0-4
		c0,0,1.114,0,1.839,0c-0.054-2-0.839-5.72,2.161-4.162c0,0.644,0,1.162,0,2.162c1,0,1,0,2,0c0-2,0-3,0-4c-1,0-2.794,0-4.161,0
		c-0.147,0,0.303,1-0.242,2c-0.644,0-1.597,0-1.597,0c0-1,0-2,0-2c-2,0-4.517,0-6.608,0c-0.146,0,0.303,1-0.241,2
		c-0.563,0-1.126,0-1.689,0c-0.404,0-0.191,1-0.241,2c-0.306,0-0.612,0-0.918,0c0.31,0.321,0.618,0.644,0.919,0.973
		c-0.05-0.56-0.11-0.973,0.24-0.973c0.513,0,1.026,0,1.539,0c0,0.739,0,2.022,0,3.046c0.257,0.315,0.512,0.632,0.761,0.954
		c0.675,0,1.271,0,1.803,0c0.149-1-0.554-1.858-0.006-2.115c0.501,0.143,1.442-0.242,1.442,0.298c0,1.287,0,2.817,0,3.817
		c-0.592,0-1.185,0-1.777,0c1.531,2.207,2.882,4.546,4.029,7C87.813,34.667,88.056,34.667,88.333,34.667z M84.333,21.667
		c-0.869,0-1.739,0-2.608,0c0.149-1-0.089-2.03,0.46-2.287c0.695,0.028,1.148-0.248,2.148,0.125
		C84.333,20.148,84.333,20.667,84.333,21.667z M87.758,29.667c-0.563,0-1.425,0-1.425,0c0-1,0-1,0-2c0,0,0.789,0,1.666,0
		C87.85,28.667,88.306,29.667,87.758,29.667z M86.311,21.667c0.563,0,1.022,0,2.022,0c0,0,0,0.961,0,1.941
		c-1-0.147-1.918,0.418-2.098-0.126C86.383,22.905,85.766,21.667,86.311,21.667z"/>
	<path fill="#222222" d="M90.333,35.667c-0.962,0-1.666,0-2.293,0c0.433,0.983,0.83,1.984,1.196,3c0.328,0,0.712,0,1.097,0
		C90.333,37.667,90.333,36.667,90.333,35.667z"/>
</g>
</svg>
